<mxfile host="app.diagrams.net" modified="2022-07-15T05:43:32.319Z" agent="5.0 (Windows NT 10.0; Win64; x64) AppleWebKit/537.36 (KHTML, like Gecko) Chrome/103.0.0.0 Safari/537.36" etag="tMe5V2_1AOvelTDK7PA7" version="20.1.1" type="github">
  <diagram id="UN0rjh8gOqVbh-qBzQUg" name="Page-1">
    <mxGraphModel dx="1422" dy="762" grid="1" gridSize="10" guides="1" tooltips="1" connect="1" arrows="1" fold="1" page="1" pageScale="1" pageWidth="827" pageHeight="1169" math="0" shadow="0">
      <root>
        <mxCell id="0" />
        <mxCell id="1" parent="0" />
        <mxCell id="XWm9XOVr6H7yTXEWBIy5-1" value="&lt;span style=&quot;font-family: Consolas, Menlo, Courier, monospace; text-align: start; background-color: rgb(255, 255, 255);&quot;&gt;market.ads_market_monitor_index_di&lt;/span&gt;" style="rounded=1;whiteSpace=wrap;html=1;" vertex="1" parent="1">
          <mxGeometry x="240" y="200" width="280" height="70" as="geometry" />
        </mxCell>
      </root>
    </mxGraphModel>
  </diagram>
</mxfile>
